<?xml version="1.0" ?>
<!DOCTYPE svg  PUBLIC '-//W3C//DTD SVG 1.1//EN'  'http://www.w3.org/Graphics/SVG/1.1/DTD/svg11.dtd'>
<svg enable-background="new 0 0 64 64" height="64px" id="Layer_1" version="1.1" viewBox="0 0 64 64" width="64px" xml:space="preserve" xmlns="http://www.w3.org/2000/svg" xmlns:xlink="http://www.w3.org/1999/xlink">
    <g><path d="M16.167,52.664" fill="#241F20"/><path d="M36.821,0.344h-9.4c-1.564,0-1.726,0.91-1.735,1.228v1.651c0.008,0.374,0.144,1.443,1.461,1.443h9.696   c1.217,0,1.438-0.81,1.471-1.25V1.989C38.313,0.484,37.166,0.35,36.821,0.344z" fill="#241F20"/>
    <path d="M60.174,30.265c-0.016-0.009-0.017-0.019-0.034-0.028c-0.765-0.433-1.053-0.966-1.053-0.966L47.363,9.638   c-0.023-0.044-0.464-0.844-0.82-1.393c-0.133-0.187-0.423-0.504-0.885-0.504H32.534c-0.292,0-1.433,0-2.951,0   c-4.289,0-11.628,0-11.628,0s-0.689,0.031-1.437,1.324c-0.67,1.149-10.036,17.374-12.124,21.009   c-1.517,0.271-2.683,1.754-2.683,3.556v16.609c0,2.01,1.421,3.605,3.175,3.605h3.175v7.961c0,0.99,0.639,1.788,1.436,1.788h5.123   c0.779,0,1.433-0.798,1.433-1.788v-7.961h31.971v8.026c0,0.987,0.639,1.785,1.421,1.785h5.058c0.781,0,1.417-0.798,1.417-1.785   v-8.026h3.19c1.758,0,3.176-1.596,3.176-3.605V33.63C62.287,32.065,61.403,30.76,60.174,30.265z M18.656,11.729   c0,0,0.383-0.751,2.169-0.751h8.93h2.031c0,0,0.1,0.003,0.237,0h11.393c0.474,0.059,1.19,0.299,1.715,1.178l10.674,17.872H8.063   L18.656,11.729z M13.649,47.423c-3.028,0-5.484-2.455-5.484-5.483s2.456-5.487,5.484-5.487s5.484,2.459,5.484,5.487   S16.678,47.423,13.649,47.423z M50.435,47.423c-3.029,0-5.484-2.455-5.484-5.483s2.455-5.487,5.484-5.487   c3.028,0,5.483,2.459,5.483,5.487S53.463,47.423,50.435,47.423z" fill="#241F20"/>
    </g>
</svg>